<?xml version="1.0" encoding="UTF-8" standalone="no"?>
<svg width="86px" height="86px" viewBox="0 0 86 86" version="1.1" xmlns="http://www.w3.org/2000/svg" xmlns:xlink="http://www.w3.org/1999/xlink">
    <!-- Generator: Sketch 40.3 (33839) - http://www.bohemiancoding.com/sketch -->
    <title>Circle and theme icon</title>
    <desc>Created with Sketch.</desc>
    <defs>
        <linearGradient x1="50%" y1="0%" x2="50%" y2="100%" id="linearGradient-1">
            <stop stop-color="#FFFEF1" offset="0%"></stop>
            <stop stop-color="#FFF191" offset="100%"></stop>
        </linearGradient>
    </defs>
    <g id="Page-1" stroke="none" stroke-width="1" fill="none" fill-rule="evenodd">
        <g id="Homepage" transform="translate(-401.000000, -2558.000000)">
            <g id="Themes-row" transform="translate(0.000000, 2275.000000)">
                <g id="Designs-promo-block" transform="translate(368.000000, 283.000000)">
                    <g id="Circle-and-theme-icon" transform="translate(33.000000, 0.000000)">
                        <circle id="Icon-circle" fill="url(#linearGradient-1)" cx="43" cy="43" r="43"></circle>
                        <g id="Paint-brush-icon" transform="translate(22.000000, 21.000000)" fill="#DA4177">
                            <path d="M11.5879921,29.3805118 C11.1224409,29.846063 11.1224409,30.5994094 11.5879921,31.0734252 C12.4767717,31.9622047 12.4683071,33.384252 11.5541339,34.3661417 C11.063189,34.8994094 10.301378,35.3226378 9.28562992,35.6358268 C8.6507874,35.8305118 8.29527559,36.4992126 8.48996063,37.1255906 C8.65925197,37.7096457 9.37874016,38.1074803 9.97972441,37.9212598 C11.4017717,37.4895669 12.5190945,36.8377953 13.3062992,35.9913386 C15.0753937,34.0783465 15.0584646,31.175 13.2724409,29.3889764 C12.8068898,28.9149606 12.0535433,28.9149606 11.5879921,29.3805118 L11.5879921,29.3805118 Z" id="Shape" opacity="0.650000036"></path>
                            <path d="M42.1535433,0.922637795 C39.1316929,-2.09074803 30.7856299,3.50433071 24.3102362,9.97972441 C20.5773622,13.7125984 17.4877953,17.7163386 15.8033465,21.0005906 L12.3413386,24.4625984 C9.60728346,23.8616142 6.69547244,24.725 4.70629921,26.6887795 C3.21653543,28.1785433 3.25885827,30.2354331 3.3011811,32.4192913 C3.36043307,35.2887795 3.41968504,38.2598425 0.397834646,40.9854331 C0.0338582677,41.3070866 -0.0931102362,41.8234252 0.0761811024,42.2805118 C0.389370079,43.0423228 1.03267717,43.1185039 1.73523622,43.0761811 L1.73523622,43.0761811 C4.15610236,43.0761811 12.3582677,42.7375984 16.4212598,38.3360236 C18.4019685,36.1944882 19.1129921,33.3588583 18.5797244,30.7771654 L22.0840551,27.2728346 C25.3598425,25.5883858 29.3635827,22.5072835 33.1049213,18.7744094 C40.7568898,10.8938976 44.8875984,3.72440945 42.1535433,0.922637795 L42.1535433,0.922637795 Z M14.6606299,36.7108268 C12.0366142,39.5549213 6.91555118,40.3675197 3.88523622,40.596063 C5.79822835,37.7181102 5.73897638,34.6962598 5.69665354,32.3685039 C5.65433071,30.3708661 5.67125984,29.1096457 6.3992126,28.3816929 C8.61692913,26.1301181 12.451378,26.0624016 14.6944882,28.3816929 C16.9206693,30.6163386 16.9122047,34.2730315 14.6606299,36.7108268 L14.6606299,36.7108268 Z M17.6316929,28.3309055 C17.2931102,27.7468504 16.8783465,27.188189 16.378937,26.6887795 C15.871063,26.1809055 15.3208661,25.7661417 14.7537402,25.4275591 L17.5555118,22.6257874 L20.4503937,25.5122047 L17.6316929,28.3309055 L17.6316929,28.3309055 Z M31.4035433,17.0730315 C28.4240157,20.0525591 25.292126,22.575 22.5580709,24.2425197 L18.8251969,20.5096457 C20.0356299,18.528937 21.694685,16.3450787 23.65,14.1527559 L28.6779528,14.1527559 C29.338189,14.1527559 29.8714567,13.6194882 29.8714567,12.959252 C29.8714567,12.2990157 29.338189,11.765748 28.6779528,11.765748 L25.9015748,11.765748 C25.9354331,11.7318898 26.9173228,10.7584646 27.3744094,10.3352362 L33.3165354,10.3352362 C33.9767717,10.3352362 34.5100394,9.8019685 34.5100394,9.14173228 C34.5100394,8.48149606 33.9767717,7.94822835 33.3165354,7.94822835 L30.0746063,7.94822835 C35.7543307,3.24192913 39.8088583,1.95531496 40.4606299,2.61555118 C41.4086614,5.15492126 36.6261811,11.765748 31.4035433,17.0730315 L31.4035433,17.0730315 Z" id="Shape"></path>
                        </g>
                    </g>
                </g>
            </g>
        </g>
    </g>
</svg>