<?xml version="1.0" encoding="UTF-8" standalone="no"?>
<svg width="86px" height="86px" viewBox="0 0 86 86" version="1.1" xmlns="http://www.w3.org/2000/svg" xmlns:xlink="http://www.w3.org/1999/xlink">
    <!-- Generator: Sketch 40.3 (33839) - http://www.bohemiancoding.com/sketch -->
    <title>Circle and card icon</title>
    <desc>Created with Sketch.</desc>
    <defs>
        <linearGradient x1="50%" y1="0%" x2="50%" y2="100%" id="linearGradient-1">
            <stop stop-color="#F55B91" offset="0%"></stop>
            <stop stop-color="#BB2B5E" offset="100%"></stop>
        </linearGradient>
    </defs>
    <g id="Page-1" stroke="none" stroke-width="1" fill="none" fill-rule="evenodd">
        <g id="Homepage" transform="translate(-278.000000, -3044.000000)">
            <g id="Pricing" transform="translate(0.000000, 2975.000000)">
                <g id="Circle-and-card-icon" transform="translate(278.000000, 69.000000)">
                    <circle id="Icon-circle" fill="url(#linearGradient-1)" cx="43" cy="43" r="43"></circle>
                    <g id="Card-icon" transform="translate(18.000000, 24.000000)" fill="#FFFFFF">
                        <path d="M45.3028657,11.7379848 L19.1856038,11.7379848 C16.6522705,11.7379848 14.5790562,13.8106038 14.5790562,16.3445324 L14.5790562,32.8915562 C14.5790562,35.4248895 16.6516752,37.4981038 19.1856038,37.4981038 L45.3028657,37.4981038 C47.8361991,37.4981038 49.9094133,35.4254848 49.9094133,32.8915562 L49.9094133,16.3439372 C49.9088181,13.8106038 47.8361991,11.7379848 45.3028657,11.7379848 L45.3028657,11.7379848 Z M19.1290562,14.6225086 L45.7623895,14.6225086 C46.6790562,14.6225086 47.4290562,15.3725086 47.4290562,16.2891752 L47.4290562,16.9254848 L17.4623895,16.9254848 L17.4623895,16.2891752 C17.4623895,15.3725086 18.2123895,14.6225086 19.1290562,14.6225086 L19.1290562,14.6225086 Z M45.7617943,34.6129848 L19.1290562,34.6129848 C18.2123895,34.6129848 17.4623895,33.8629848 17.4623895,32.9463181 L17.4623895,21.3082229 L47.4290562,21.3082229 L47.4290562,32.9463181 C47.428461,33.8629848 46.678461,34.6129848 45.7617943,34.6129848 L45.7617943,34.6129848 Z" id="Shape"></path>
                        <path d="M19.2439372,9.23322287 L35.4439372,9.23322287 L32.1492943,2.56358001 C31.0272705,0.292151437 28.2504848,-0.648324753 25.9790562,0.473699056 L2.56358001,12.040961 C0.292151437,13.1629848 -0.648324753,15.9397705 0.473699056,18.2111991 L7.80227048,33.0463181 C8.79036572,35.0469133 11.0617943,36.0141752 13.1415562,35.4498895 C12.5290562,34.4040562 12.1754848,33.1903657 12.1754848,31.8969133 L12.1754848,16.3016752 C12.1754848,12.4141752 15.3564372,9.23322287 19.2439372,9.23322287 L19.2439372,9.23322287 Z" id="Shape"></path>
                        <path d="M26.7076276,26.8582229 C25.8004848,26.8582229 24.98858,27.26358 24.440961,27.9016752 C23.8933419,27.2629848 23.0814372,26.8582229 22.1742943,26.8582229 C20.5254848,26.8582229 19.1891752,28.1945324 19.1891752,29.8433419 C19.1891752,31.4921514 20.5254848,32.828461 22.1742943,32.828461 C23.0814372,32.828461 23.8933419,32.4231038 24.440961,31.7850086 C24.98858,32.4236991 25.8004848,32.828461 26.7076276,32.828461 C28.3564372,32.828461 29.6927467,31.4921514 29.6927467,29.8433419 C29.6927467,28.1945324 28.3558419,26.8582229 26.7076276,26.8582229 L26.7076276,26.8582229 Z" id="Shape"></path>
                    </g>
                </g>
            </g>
        </g>
    </g>
</svg>