<?xml version="1.0" encoding="UTF-8" standalone="no"?>
<svg width="20px" height="20px" viewBox="0 0 20 20" version="1.1" xmlns="http://www.w3.org/2000/svg" xmlns:xlink="http://www.w3.org/1999/xlink">
    <!-- Generator: Sketch 40.3 (33839) - http://www.bohemiancoding.com/sketch -->
    <title>Check icon</title>
    <desc>Created with Sketch.</desc>
    <defs></defs>
    <g id="Page-1" stroke="none" stroke-width="1" fill="none" fill-rule="evenodd">
        <g id="Homepage" transform="translate(-823.000000, -3180.000000)" fill="#FFBDD4">
            <g id="Pricing" transform="translate(0.000000, 2975.000000)">
                <g id="Checked-list" transform="translate(823.000000, 188.000000)">
                    <path d="M9.98899269,17 C4.48131825,17 0,21.4733271 0,26.9810066 C0,32.4886811 4.48131825,36.9699993 9.98899269,36.9699993 C15.4966671,36.9699993 19.9779854,32.4886811 19.9779854,26.9810066 C19.9819037,26.7039002 19.8363135,26.4461499 19.5969641,26.3064532 C19.3576146,26.1667565 19.0615881,26.1667565 18.8222386,26.3064532 C18.5828891,26.4461499 18.437299,26.7039002 18.4412173,26.9810066 C18.4412173,31.6581604 14.6661208,35.441248 9.98899269,35.441248 C5.31186457,35.441248 1.53676811,31.6581604 1.53676811,26.9810066 C1.53676811,22.3038734 5.31186457,18.5287769 9.98899269,18.5287769 C11.4726911,18.5287769 12.9301619,18.9234958 14.215105,19.665345 C14.5778986,19.8409774 15.0147455,19.7068925 15.2165328,19.3579686 C15.4183201,19.0090447 15.3166608,18.5635345 14.983489,18.3366809 C13.4650085,17.4599803 11.7423939,17 9.98899269,17 L9.98899269,17 Z M18.9214573,19.5612802 C18.7259804,19.571013 18.535498,19.6590442 18.4012101,19.8014002 C15.7024404,22.6250067 13.0954157,25.665528 10.4452079,28.4777419 L6.65932846,25.1400814 C6.35758404,24.8718641 5.83900165,24.902369 5.57078439,25.2041134 C5.30256713,25.5058578 5.33307197,26.0244402 5.63481639,26.2926575 L9.98899269,30.1345828 C10.283796,30.3936819 10.7832713,30.3711683 11.053512,30.0865588 C13.921864,27.0856349 16.682335,23.8199976 19.5057365,20.8659451 C20.0238579,20.2990057 19.558627,19.5483713 18.9214573,19.5612802 L18.9214573,19.5612802 Z" id="Check-icon"></path>
                </g>
            </g>
        </g>
    </g>
</svg>