<?xml version="1.0" encoding="UTF-8" standalone="no"?>
<svg width="21px" height="20px" viewBox="0 0 21 20" version="1.1" xmlns="http://www.w3.org/2000/svg" xmlns:xlink="http://www.w3.org/1999/xlink">
    <!-- Generator: Sketch 41.2 (35397) - http://www.bohemiancoding.com/sketch -->
    <title>Shape</title>
    <desc>Created with Sketch.</desc>
    <defs></defs>
    <g id="Page-1" stroke="none" stroke-width="1" fill="none" fill-rule="evenodd">
        <path d="M9.9116592,0.00586669831 C9.77838384,0.00348115812 9.64262275,0.00992211665 9.5090993,0.0132618729 C8.79697261,0.0313919784 8.08804731,0.127481538 7.38447756,0.304011512 C2.15452896,1.61626378 -1.0322307,6.93465866 0.280040677,12.1646311 C1.592312,17.3945702 6.91069973,20.5813179 12.1406483,19.2690561 C17.3705945,17.9567704 20.557359,12.6383994 19.2450852,7.40842695 C19.1981523,7.14563955 19.008877,6.93080838 18.7540957,6.85114426 C18.4993144,6.77148014 18.2213721,6.84022335 18.0330996,7.02946753 C17.8448271,7.21871172 17.7775155,7.49700428 17.85849,7.7513722 C18.9825064,12.2310446 16.2773921,16.758442 11.7977269,17.8824608 C7.31804265,19.0064797 2.79063564,16.3013725 1.66663589,11.8216859 C0.542617087,7.34201351 3.24773138,2.81461604 7.72739896,1.69059721 C10.1305898,1.08760421 12.6735255,1.57981272 14.6752848,3.03993031 C14.8809067,3.20472469 15.1604487,3.24320509 15.4029487,3.14009699 C15.6454487,3.03698889 15.8116791,2.8089714 15.8356559,2.5465544 C15.8596328,2.28413741 15.7374774,2.02977034 15.5176787,1.88442235 C13.8694302,0.6821912 11.9108039,0.0367117331 9.9116592,0.00581898751 L9.9116592,0.00586669831 Z M20.2291206,0.945163609 C20.0437349,0.956405369 19.8699784,1.0392696 19.7445577,1.17625089 C17.202235,3.83619978 12.6657558,8.78796099 9.95638808,11.6428181 L6.42280666,8.52672048 C6.23104389,8.35626619 5.9629115,8.30106416 5.71941237,8.38190846 C5.47591324,8.46275275 5.29404068,8.66736119 5.24230433,8.91865977 C5.19056798,9.16995835 5.27682781,9.42976883 5.46859059,9.60022311 L9.52400892,13.1785334 C9.81089792,13.4343635 10.2486347,13.417902 10.5154991,13.1412474 C13.180448,10.3530757 18.1370471,4.9259861 20.7733219,2.16775296 C20.9843005,1.95833326 21.0438689,1.64030191 20.9229831,1.36872282 C20.8020973,1.09714373 20.5259249,0.928557969 20.2291206,0.945163609 L20.2291206,0.945163609 Z" id="Shape" fill="#8FD920"></path>
    </g>
</svg>