<?xml version="1.0" encoding="UTF-8" standalone="no"?>
<svg width="18px" height="18px" viewBox="0 0 18 18" version="1.1" xmlns="http://www.w3.org/2000/svg" xmlns:xlink="http://www.w3.org/1999/xlink">
    <!-- Generator: Sketch 41.2 (35397) - http://www.bohemiancoding.com/sketch -->
    <title>Shape</title>
    <desc>Created with Sketch.</desc>
    <defs></defs>
    <g id="Page-1" stroke="none" stroke-width="1" fill="none" fill-rule="evenodd">
        <path d="M14.571942,3.4280549 C11.2678668,0.123979665 5.83213014,0.123979665 2.5280549,3.4280549 C-0.776020335,6.73213014 -0.776020335,12.1678668 2.5280549,15.471942 C5.83213014,18.7760173 11.2678668,18.7760173 14.571942,15.471942 C17.8760173,12.1678668 17.8760173,6.83871321 14.571942,3.4280549 Z M10.5025411,13.1207785 L8.47189677,11.0901342 L6.44125249,13.1207785 C5.97264227,13.5893887 5.34782865,13.5893887 4.87921843,13.1207785 C4.41060821,12.6521683 4.41060821,12.0273547 4.87921843,11.5587445 L6.90986271,9.52810018 L4.87921843,7.4974559 C4.41060821,7.02884568 4.41060821,6.40403205 4.87921843,5.93542183 C5.34782865,5.46681162 5.97264227,5.46681162 6.44125249,5.93542183 L8.47189677,7.96606612 L10.5025411,5.93542183 C10.9711513,5.46681162 11.5959649,5.46681162 12.0645751,5.93542183 C12.5331853,6.40403205 12.5331853,7.02884568 12.0645751,7.4974559 L10.0339308,9.52810018 L12.0645751,11.5587445 C12.5331853,12.0273547 12.5331853,12.6521683 12.0645751,13.1207785 C11.7521683,13.5893887 10.9711513,13.5893887 10.5025411,13.1207785 Z" id="Shape" fill="#C7C7C7"></path>
    </g>
</svg>