<?xml version="1.0" encoding="UTF-8" standalone="no"?>
<svg width="20px" height="16px" viewBox="0 0 20 16" version="1.1" xmlns="http://www.w3.org/2000/svg" xmlns:xlink="http://www.w3.org/1999/xlink">
    <!-- Generator: Sketch 41.2 (35397) - http://www.bohemiancoding.com/sketch -->
    <title>Group</title>
    <desc>Created with Sketch.</desc>
    <defs></defs>
    <g id="Page-1" stroke="none" stroke-width="1" fill="none" fill-rule="evenodd">
        <g id="Group" fill="#989898">
            <path d="M9.375,11.4381271 C9.209375,11.4381271 9.050625,11.3755184 8.933125,11.2617391 L7.058125,9.45571906 C6.81375,9.22033445 6.81375,8.83986622 7.058125,8.60448161 C7.3025,8.36909699 7.6975,8.36909699 7.941875,8.60448161 L9.333125,9.94454849 L12.02,6.83879599 C12.24125,6.58354515 12.634375,6.54923077 12.900625,6.76173913 C13.165625,6.9748495 13.20125,7.35411371 12.980625,7.60936455 L9.855625,11.2214047 C9.743125,11.3514381 9.579375,11.429699 9.40375,11.4369231 C9.39375,11.4381271 9.384375,11.4381271 9.375,11.4381271 Z" id="Shape"></path>
            <path d="M14.931875,15.6521739 L5.625,15.6521739 C2.52375,15.6521739 0,13.2218729 0,10.2341137 C0,8.62675585 0.75,7.10608696 2.029375,6.07785953 C1.926875,5.76361204 1.875,5.44153846 1.875,5.11705686 C1.875,3.29117057 3.416875,1.80602007 5.3125,1.80602007 C5.7375,1.80602007 6.1625,1.88668896 6.565625,2.0426087 C7.75375,0.738662207 9.43375,0 11.25,0 C14.69625,0 17.5,2.70060201 17.5,6.02006689 C17.5,6.1916388 17.490625,6.36923077 17.471875,6.55464883 C19.021875,7.42575251 20,9.03551839 20,10.7705017 C20,13.4620736 17.72625,15.6521739 14.931875,15.6521739 Z M5.3125,3.01003344 C4.10625,3.01003344 3.125,3.95518395 3.125,5.11705686 C3.125,5.42107023 3.199375,5.72568562 3.34625,6.0206689 C3.47875,6.28675585 3.39125,6.6064214 3.139375,6.77438127 C1.95625,7.56782609 1.25,8.86153846 1.25,10.2341137 C1.25,12.5572575 3.2125,14.4481605 5.625,14.4481605 L14.931875,14.4481605 C17.0375,14.4481605 18.75,12.7986622 18.75,10.7705017 C18.75,9.35277592 17.87875,8.04461538 16.53125,7.43839465 C16.278125,7.32461538 16.13375,7.06274247 16.17875,6.79725753 C16.226875,6.50949833 16.25,6.25545151 16.25,6.02006689 C16.25,3.36461538 14.006875,1.20401338 11.25,1.20401338 C9.658125,1.20401338 8.19625,1.91438127 7.239375,3.15331104 C7.048125,3.40073579 6.694375,3.46876254 6.419375,3.3122408 C6.06875,3.11177258 5.69625,3.01003344 5.3125,3.01003344 Z" id="Shape"></path>
        </g>
    </g>
</svg>