<?xml version="1.0" encoding="UTF-8" standalone="no"?>
<svg width="240px" height="280px" viewBox="0 0 240 280" version="1.1" xmlns="http://www.w3.org/2000/svg" xmlns:xlink="http://www.w3.org/1999/xlink">
    <!-- Generator: Sketch 40.3 (33839) - http://www.bohemiancoding.com/sketch -->
    <title>Cogs</title>
    <desc>Created with Sketch.</desc>
    <defs></defs>
    <g id="Page-1" stroke="none" stroke-width="1" fill="none" fill-rule="evenodd">
        <g id="Homepage" transform="translate(-79.000000, -2275.000000)" fill="#1D365E">
            <g id="Themes-row" transform="translate(0.000000, 2275.000000)">
                <g id="Cogs" transform="translate(79.000000, -46.000000)">
                    <g id="Cog-icon" transform="translate(39.000000, 0.000000)">
                        <path d="M99.2470588,42.5294118 L107.735294,34.4764706 L101.858824,23.5941176 L90.3235294,26.2058824 C87.0588235,22.2882353 83.1411765,18.8058824 78.5705882,16.1941176 L79.4411765,4.44117647 L67.9058824,0.523529412 L61.3764706,10.3176471 C54.8470588,9.44705882 48.3176471,10.1 42.2235294,12.0588235 L34.1705882,3.57058824 L23.5058824,9.22941176 L26.1176471,20.7647059 C22.2,24.0294118 18.7176471,27.9470588 16.1058824,32.5176471 L4.13529412,31.6470588 L0.217647059,43.1823529 L10.0117647,49.7117647 C9.14117647,56.2411765 9.79411765,62.7705882 11.7529412,68.8647059 L3.26470588,76.9176471 L9.14117647,87.8 L20.6764706,85.1882353 C23.9411765,89.1058824 27.8588235,92.5882353 32.4294118,95.2 L31.5588235,106.952941 L43.0941176,110.870588 L49.6235294,101.076471 C56.1529412,101.947059 62.6823529,101.294118 68.7764706,99.3352941 L76.8294118,107.823529 L87.7117647,101.947059 L84.8823529,90.6294118 C88.8,87.3647059 92.2823529,83.4470588 94.8941176,78.8764706 L106.429412,79.9647059 L110.347059,68.4294118 L100.552941,61.9 C101.641176,55.1529412 100.988235,48.8411765 99.2470588,42.5294118 L99.2470588,42.5294118 Z M83.7941176,65.8176471 C78.3529412,81.4882353 61.1588235,89.7588235 45.4882353,84.3176471 C29.8176471,78.8764706 21.5470588,61.6823529 26.9882353,46.0117647 C32.4294118,30.3411765 49.6235294,22.0705882 65.2941176,27.5117647 C80.7470588,32.9529412 89.2352941,50.1470588 83.7941176,65.8176471 L83.7941176,65.8176471 Z" id="Shape"></path>
                        <ellipse id="Oval" transform="translate(55.327123, 55.841468) rotate(-70.920043) translate(-55.327123, -55.841468) " cx="55.3271229" cy="55.8414676" rx="22.6361726" ry="22.6361726"></ellipse>
                    </g>
                    <g id="Cog-icon" transform="translate(0.000000, 107.000000)">
                        <path d="M54.5411765,23.9215686 L59.2058824,19.4960784 L55.9764706,13.5156863 L49.6372549,14.9509804 C47.8431373,12.7980392 45.6901961,10.8843137 43.1784314,9.44901961 L43.6568627,2.99019608 L37.3176471,0.837254902 L33.7294118,6.21960784 C30.1411765,5.74117647 26.5529412,6.1 23.2039216,7.17647059 L18.7784314,2.51176471 L12.9176471,5.62156863 L14.3529412,11.9607843 C12.2,13.754902 10.2862745,15.9078431 8.85098039,18.4196078 L2.27254902,17.9411765 L0.119607843,24.2803922 L5.50196078,27.8686275 C5.02352941,31.4568627 5.38235294,35.045098 6.45882353,38.3941176 L1.79411765,42.8196078 L5.02352941,48.8 L11.3627451,47.3647059 C13.1568627,49.5176471 15.3098039,51.4313725 17.8215686,52.8666667 L17.3431373,59.3254902 L23.6823529,61.4784314 L27.2705882,56.0960784 C30.8588235,56.5745098 34.4470588,56.2156863 37.7960784,55.1392157 L42.2215686,59.8039216 L48.2019608,56.5745098 L46.6470588,50.354902 C48.8,48.5607843 50.7137255,46.4078431 52.1490196,43.8960784 L58.4882353,44.4941176 L60.6411765,38.154902 L55.2588235,34.5666667 C55.8568627,30.8588235 55.4980392,27.3901961 54.5411765,23.9215686 L54.5411765,23.9215686 Z M46.0490196,36.7196078 C43.0588235,45.3313725 33.6098039,49.8764706 24.9980392,46.8862745 C16.3862745,43.8960784 11.8411765,34.4470588 14.8313725,25.8352941 C17.8215686,17.2235294 27.2705882,12.6784314 35.8823529,15.6686275 C44.3745098,18.6588235 49.0392157,28.1078431 46.0490196,36.7196078 L46.0490196,36.7196078 Z" id="Shape"></path>
                        <ellipse id="Oval" transform="translate(30.404995, 31.237203) rotate(-70.920043) translate(-30.404995, -31.237203) " cx="30.4049955" cy="31.2372029" rx="12.4396984" ry="12.4396984"></ellipse>
                    </g>
                    <g id="Cog-icon" transform="translate(139.000000, 109.000000)">
                        <path d="M63.4823529,27.8431373 L68.9117647,22.6921569 L65.1529412,15.7313725 L57.7745098,17.4019608 C55.6862745,14.8960784 53.1803922,12.6686275 50.2568627,10.9980392 L50.8137255,3.48039216 L43.4352941,0.974509804 L39.2588235,7.23921569 C35.0823529,6.68235294 30.9058824,7.1 27.0078431,8.35294118 L21.8568627,2.92352941 L15.0352941,6.54313725 L16.7058824,13.9215686 C14.2,16.0098039 11.972549,18.5156863 10.3019608,21.4392157 L2.64509804,20.8823529 L0.139215686,28.2607843 L6.40392157,32.4372549 C5.84705882,36.6137255 6.26470588,40.7901961 7.51764706,44.6882353 L2.08823529,49.8392157 L5.84705882,56.8 L13.2254902,55.1294118 C15.3137255,57.6352941 17.8196078,59.8627451 20.7431373,61.5333333 L20.1862745,69.0509804 L27.5647059,71.5568627 L31.7411765,65.2921569 C35.9176471,65.8490196 40.0941176,65.4313725 43.9921569,64.1784314 L49.1431373,69.6078431 L56.1039216,65.8490196 L54.2941176,58.6098039 C56.8,56.5215686 59.027451,54.0156863 60.6980392,51.0921569 L68.0764706,51.7882353 L70.5823529,44.4098039 L64.3176471,40.2333333 C65.0137255,35.9176471 64.5960784,31.8803922 63.4823529,27.8431373 L63.4823529,27.8431373 Z M53.5980392,42.7392157 C50.1176471,52.7627451 39.1196078,58.0529412 29.0960784,54.572549 C19.072549,51.0921569 13.7823529,40.0941176 17.2627451,30.0705882 C20.7431373,20.0470588 31.7411765,14.7568627 41.7647059,18.2372549 C51.6490196,21.7176471 57.0784314,32.7156863 53.5980392,42.7392157 L53.5980392,42.7392157 Z" id="Shape"></path>
                        <ellipse id="Oval" transform="translate(35.389421, 36.358056) rotate(-70.920043) translate(-35.389421, -36.358056) " cx="35.389421" cy="36.3580559" rx="14.4789933" ry="14.4789933"></ellipse>
                    </g>
                    <g id="Cog-icon" opacity="0.599999964" transform="translate(79.000000, 191.000000)">
                        <path d="M81.3647059,34.6862745 L88.3235294,28.0843137 L83.5058824,19.1627451 L74.0490196,21.3039216 C71.372549,18.0921569 68.1607843,15.2372549 64.4137255,13.0960784 L65.127451,3.46078431 L55.6705882,0.249019608 L50.3176471,8.27843137 C44.9647059,7.56470588 39.6117647,8.1 34.6156863,9.70588235 L28.0137255,2.74705882 L19.2705882,7.38627451 L21.4117647,16.8431373 C18.2,19.5196078 15.345098,22.7313725 13.2039216,26.4784314 L3.39019608,25.7647059 L0.178431373,35.2215686 L8.20784314,40.5745098 C7.49411765,45.927451 8.02941176,51.2803922 9.63529412,56.2764706 L2.67647059,62.8784314 L7.49411765,71.8 L16.9509804,69.6588235 C19.627451,72.8705882 22.8392157,75.7254902 26.5862745,77.8666667 L25.872549,87.5019608 L35.3294118,90.7137255 L40.6823529,82.6843137 C46.0352941,83.3980392 51.3882353,82.8627451 56.3843137,81.2568627 L62.9862745,88.2156863 L71.9078431,83.3980392 L69.5882353,74.1196078 C72.8,71.4431373 75.654902,68.2313725 77.7960784,64.4843137 L87.2529412,65.3764706 L90.4647059,55.9196078 L82.4352941,50.5666667 C83.327451,45.0352941 82.7921569,39.8607843 81.3647059,34.6862745 L81.3647059,34.6862745 Z M68.6960784,53.7784314 C64.2352941,66.6254902 50.1392157,73.4058824 37.2921569,68.945098 C24.445098,64.4843137 17.6647059,50.3882353 22.1254902,37.5411765 C26.5862745,24.6941176 40.6823529,17.9137255 53.5294118,22.3745098 C66.1980392,26.8352941 73.1568627,40.9313725 68.6960784,53.7784314 L68.6960784,53.7784314 Z" id="Shape"></path>
                        <ellipse id="Oval" transform="translate(45.358272, 45.599762) rotate(-70.920043) translate(-45.358272, -45.599762) " cx="45.358272" cy="45.5997618" rx="18.5575829" ry="18.5575829"></ellipse>
                    </g>
                    <g id="Cog-icon" transform="translate(189.000000, 200.000000)">
                        <path d="M27.7176471,12.1568627 L30.0882353,9.90784314 L28.4470588,6.86862745 L25.2254902,7.59803922 C24.3137255,6.50392157 23.2196078,5.53137255 21.9431373,4.80196078 L22.1862745,1.51960784 L18.9647059,0.425490196 L17.1411765,3.16078431 C15.3176471,2.91764706 13.4941176,3.1 11.7921569,3.64705882 L9.54313725,1.27647059 L6.56470588,2.85686275 L7.29411765,6.07843137 C6.2,6.99019608 5.22745098,8.08431373 4.49803922,9.36078431 L1.15490196,9.11764706 L0.0607843137,12.3392157 L2.79607843,14.1627451 C2.55294118,15.9862745 2.73529412,17.8098039 3.28235294,19.5117647 L0.911764706,21.7607843 L2.55294118,24.8 L5.7745098,24.0705882 C6.68627451,25.1647059 7.78039216,26.1372549 9.05686275,26.8666667 L8.81372549,30.1490196 L12.0352941,31.2431373 L13.8588235,28.5078431 C15.6823529,28.7509804 17.5058824,28.5686275 19.2078431,28.0215686 L21.4568627,30.3921569 L24.4960784,28.7509804 L23.7058824,25.5901961 C24.8,24.6784314 25.772549,23.5843137 26.5019608,22.3078431 L29.7235294,22.6117647 L30.8176471,19.3901961 L28.0823529,17.5666667 C28.3862745,15.6823529 28.2039216,13.9196078 27.7176471,12.1568627 L27.7176471,12.1568627 Z M23.4019608,18.6607843 C21.8823529,23.0372549 17.0803922,25.3470588 12.7039216,23.827451 C8.32745098,22.3078431 6.01764706,17.5058824 7.5372549,13.1294118 C9.05686275,8.75294118 13.8588235,6.44313725 18.2352941,7.9627451 C22.5509804,9.48235294 24.9215686,14.2843137 23.4019608,18.6607843 L23.4019608,18.6607843 Z" id="Shape"></path>
                        <ellipse id="Oval" transform="translate(15.451719, 15.874644) rotate(-70.920043) translate(-15.451719, -15.874644) " cx="15.451719" cy="15.8746441" rx="6.32181396" ry="6.32181396"></ellipse>
                    </g>
                    <g id="Cog-icon" opacity="0.400000006" transform="translate(179.000000, 264.000000)">
                        <path d="M54.5411765,23.9215686 L59.2058824,19.4960784 L55.9764706,13.5156863 L49.6372549,14.9509804 C47.8431373,12.7980392 45.6901961,10.8843137 43.1784314,9.44901961 L43.6568627,2.99019608 L37.3176471,0.837254902 L33.7294118,6.21960784 C30.1411765,5.74117647 26.5529412,6.1 23.2039216,7.17647059 L18.7784314,2.51176471 L12.9176471,5.62156863 L14.3529412,11.9607843 C12.2,13.754902 10.2862745,15.9078431 8.85098039,18.4196078 L2.27254902,17.9411765 L0.119607843,24.2803922 L5.50196078,27.8686275 C5.02352941,31.4568627 5.38235294,35.045098 6.45882353,38.3941176 L1.79411765,42.8196078 L5.02352941,48.8 L11.3627451,47.3647059 C13.1568627,49.5176471 15.3098039,51.4313725 17.8215686,52.8666667 L17.3431373,59.3254902 L23.6823529,61.4784314 L27.2705882,56.0960784 C30.8588235,56.5745098 34.4470588,56.2156863 37.7960784,55.1392157 L42.2215686,59.8039216 L48.2019608,56.5745098 L46.6470588,50.354902 C48.8,48.5607843 50.7137255,46.4078431 52.1490196,43.8960784 L58.4882353,44.4941176 L60.6411765,38.154902 L55.2588235,34.5666667 C55.8568627,30.8588235 55.4980392,27.3901961 54.5411765,23.9215686 L54.5411765,23.9215686 Z M46.0490196,36.7196078 C43.0588235,45.3313725 33.6098039,49.8764706 24.9980392,46.8862745 C16.3862745,43.8960784 11.8411765,34.4470588 14.8313725,25.8352941 C17.8215686,17.2235294 27.2705882,12.6784314 35.8823529,15.6686275 C44.3745098,18.6588235 49.0392157,28.1078431 46.0490196,36.7196078 L46.0490196,36.7196078 Z" id="Shape"></path>
                        <ellipse id="Oval" transform="translate(30.404995, 31.237203) rotate(-70.920043) translate(-30.404995, -31.237203) " cx="30.4049955" cy="31.2372029" rx="12.4396984" ry="12.4396984"></ellipse>
                    </g>
                    <g id="Cog-icon" transform="translate(79.000000, 128.000000)">
                        <path d="M36.6588235,16.0784314 L39.7941176,13.1039216 L37.6235294,9.08431373 L33.3627451,10.0490196 C32.1568627,8.60196078 30.7098039,7.31568627 29.0215686,6.35098039 L29.3431373,2.00980392 L25.0823529,0.562745098 L22.6705882,4.18039216 C20.2588235,3.85882353 17.8470588,4.1 15.5960784,4.82352941 L12.6215686,1.68823529 L8.68235294,3.77843137 L9.64705882,8.03921569 C8.2,9.24509804 6.91372549,10.6921569 5.94901961,12.3803922 L1.52745098,12.0588235 L0.0803921569,16.3196078 L3.69803922,18.7313725 C3.37647059,21.1431373 3.61764706,23.554902 4.34117647,25.8058824 L1.20588235,28.7803922 L3.37647059,32.8 L7.6372549,31.8352941 C8.84313725,33.2823529 10.2901961,34.5686275 11.9784314,35.5333333 L11.6568627,39.8745098 L15.9176471,41.3215686 L18.3294118,37.7039216 C20.7411765,38.0254902 23.1529412,37.7843137 25.4039216,37.0607843 L28.3784314,40.1960784 L32.3980392,38.0254902 L31.3529412,33.845098 C32.8,32.6392157 34.0862745,31.1921569 35.0509804,29.5039216 L39.3117647,29.9058824 L40.7588235,25.645098 L37.1411765,23.2333333 C37.5431373,20.7411765 37.3019608,18.4098039 36.6588235,16.0784314 L36.6588235,16.0784314 Z M30.9509804,24.6803922 C28.9411765,30.4686275 22.5901961,33.5235294 16.8019608,31.5137255 C11.0137255,29.5039216 7.95882353,23.1529412 9.96862745,17.3647059 C11.9784314,11.5764706 18.3294118,8.52156863 24.1176471,10.5313725 C29.8254902,12.5411765 32.9607843,18.8921569 30.9509804,24.6803922 L30.9509804,24.6803922 Z" id="Shape"></path>
                        <ellipse id="Oval" transform="translate(20.436145, 20.995497) rotate(-70.920043) translate(-20.436145, -20.995497) " cx="20.4361445" cy="20.9954971" rx="8.36110879" ry="8.36110879"></ellipse>
                    </g>
                </g>
            </g>
        </g>
    </g>
</svg>