<?xml version="1.0" encoding="UTF-8" standalone="no"?>
<svg width="130px" height="34px" viewBox="0 0 130 34" version="1.1" xmlns="http://www.w3.org/2000/svg" xmlns:xlink="http://www.w3.org/1999/xlink">
    <!-- Generator: Sketch 40.3 (33839) - http://www.bohemiancoding.com/sketch -->
    <title>Logo</title>
    <desc>Created with Sketch.</desc>
    <defs></defs>
    <g id="Page-1" stroke="none" stroke-width="1" fill="none" fill-rule="evenodd" opacity="0.300000012">
        <g id="Homepage" transform="translate(-186.000000, -3649.000000)">
            <g id="Footer" transform="translate(0.000000, 3511.000000)">
                <g id="Logo" transform="translate(181.000000, 134.000000)">
                    <path d="M56.5671757,25.8190195 L56.5671757,22.9290195 L63.7071757,22.9290195 C64.0131757,22.9290195 64.2511757,22.6910195 64.2851757,22.4870195 L64.7611757,17.7270195 C64.7951757,17.5230195 64.6251757,17.2850195 64.3191757,17.2850195 L56.5671757,17.2850195 L56.5671757,14.5990195 L64.9311757,14.5990195 C65.2371757,14.5990195 65.4751757,14.3950195 65.4751757,14.0890195 L65.4751757,8.95501948 C65.4751757,8.71701948 65.2371757,8.47901948 64.9311757,8.47901948 L49.9711757,8.47901948 C49.6651757,8.47901948 49.4951757,8.64901948 49.4951757,8.95501948 L49.4951757,31.4290195 C49.5631757,31.6670195 49.8011757,31.9390195 50.0391757,31.9390195 L65.1691757,31.9390195 C65.4411757,31.9390195 65.6791757,31.7010195 65.6791757,31.4630195 L65.6791757,26.2610195 C65.6791757,26.0230195 65.4411757,25.8190195 65.1691757,25.8190195 L56.5671757,25.8190195 Z M80.7411757,19.6650195 L87.4731757,8.88701948 C87.6091757,8.64901948 87.5071757,8.47901948 87.2351757,8.47901948 L79.7891757,8.47901948 C79.4831757,8.47901948 79.1431757,8.64901948 79.0071757,8.88701948 L74.9271757,16.6050195 L74.9271757,8.98901948 C74.9271757,8.71701948 74.7231757,8.47901948 74.4171757,8.47901948 L68.3991757,8.47901948 C68.1611757,8.47901948 67.9231757,8.71701948 67.9231757,8.98901948 L67.9231757,31.4630195 C67.9231757,31.7010195 68.1611757,31.9390195 68.3991757,31.9390195 L74.4171757,31.9390195 C74.7231757,31.9390195 74.9271757,31.7010195 74.9271757,31.4630195 L74.9271757,23.0310195 L79.1431757,31.5310195 C79.2791757,31.7690195 79.6191757,31.9390195 79.8571757,31.9390195 L87.7451757,31.9390195 C88.0171757,31.9390195 88.1531757,31.7690195 87.9831757,31.5310195 L80.7411757,19.6650195 Z M102.093176,19.6650195 L108.825176,8.88701948 C108.961176,8.64901948 108.859176,8.47901948 108.587176,8.47901948 L101.141176,8.47901948 C100.835176,8.47901948 100.495176,8.64901948 100.359176,8.88701948 L96.2791757,16.6050195 L96.2791757,8.98901948 C96.2791757,8.71701948 96.0751757,8.47901948 95.7691757,8.47901948 L89.7511757,8.47901948 C89.5131757,8.47901948 89.2751757,8.71701948 89.2751757,8.98901948 L89.2751757,31.4630195 C89.2751757,31.7010195 89.5131757,31.9390195 89.7511757,31.9390195 L95.7691757,31.9390195 C96.0751757,31.9390195 96.2791757,31.7010195 96.2791757,31.4630195 L96.2791757,23.0310195 L100.495176,31.5310195 C100.631176,31.7690195 100.971176,31.9390195 101.209176,31.9390195 L109.097176,31.9390195 C109.369176,31.9390195 109.505176,31.7690195 109.335176,31.5310195 L102.093176,19.6650195 Z M122.323176,7.93501948 C114.979176,7.93501948 110.083176,12.8310195 110.083176,20.1750195 C110.083176,27.5190195 114.979176,32.4150195 122.323176,32.4150195 C129.667176,32.4150195 134.563176,27.5190195 134.563176,20.1750195 C134.563176,12.8310195 129.667176,7.93501948 122.323176,7.93501948 L122.323176,7.93501948 Z M122.323176,14.5990195 C125.417176,14.5990195 127.491176,16.8430195 127.491176,20.2090195 C127.491176,23.5750195 125.417176,25.8190195 122.323176,25.8190195 C119.229176,25.8190195 117.155176,23.5750195 117.155176,20.2090195 C117.155176,16.8430195 119.229176,14.5990195 122.323176,14.5990195 L122.323176,14.5990195 Z" id="EKKO" fill="#707070"></path>
                    <g id="Icon" transform="translate(22.044769, 20.251752) rotate(20.000000) translate(-22.044769, -20.251752) translate(4.044769, 5.251752)">
                        <ellipse id="Oval-2" fill="#A3A3A3" cx="25.8056523" cy="20.0285946" rx="9.45" ry="9.45"></ellipse>
                        <circle id="Oval-2" fill="#707070" cx="12.8556523" cy="13.2035946" r="12.425"></circle>
                        <polygon id="Triangle" fill="#CECECE" transform="translate(22.480652, 17.578595) rotate(-45.000000) translate(-22.480652, -17.578595) " points="22.4806523 12.3285946 27.7306523 22.8285946 17.2306523 22.8285946"></polygon>
                    </g>
                </g>
            </g>
        </g>
    </g>
</svg>