<?xml version="1.0" encoding="UTF-8" standalone="no"?>
<svg width="21px" height="21px" viewBox="0 0 21 21" version="1.1" xmlns="http://www.w3.org/2000/svg" xmlns:xlink="http://www.w3.org/1999/xlink">
    <!-- Generator: Sketch 41.2 (35397) - http://www.bohemiancoding.com/sketch -->
    <title>Info</title>
    <desc>Created with Sketch.</desc>
    <defs></defs>
    <g id="Page-1" stroke="none" stroke-width="1" fill="none" fill-rule="evenodd">
        <g id="Info" fill="#3B5998">
            <path d="M10.5,0 C4.71022222,0 0,4.71022222 0,10.5 C0,16.2897778 4.71022222,21 10.5,21 C16.2897778,21 21,16.2897778 21,10.5 C21,4.71022222 16.2897778,0 10.5,0 Z M10.5,19.4444444 C5.56772222,19.4444444 1.55555556,15.4318889 1.55555556,10.5 C1.55555556,5.56811111 5.56772222,1.55555556 10.5,1.55555556 C15.4322778,1.55555556 19.4444444,5.56811111 19.4444444,10.5 C19.4444444,15.4318889 15.4322778,19.4444444 10.5,19.4444444 Z" id="Shape"></path>
            <path d="M11.2567778,9.72222222 C11.2567778,9.29288889 10.9083333,8.94444444 10.479,8.94444444 L8.75,8.94444444 L8.75,10.5 L9.70122222,10.5 L9.70122222,15.1666667 C9.70122222,15.596 10.0496667,15.9444444 10.479,15.9444444 L12.25,15.9444444 L12.25,14.3888889 L11.2567778,14.3888889 L11.2567778,9.72222222 Z" id="Shape"></path>
            <ellipse id="Oval" cx="10.3662222" cy="6.45788889" rx="1.22733333" ry="1.22733333"></ellipse>
        </g>
    </g>
</svg>