<?xml version="1.0" encoding="UTF-8" standalone="no"?>
<svg width="22px" height="22px" viewBox="0 0 22 22" version="1.1" xmlns="http://www.w3.org/2000/svg" xmlns:xlink="http://www.w3.org/1999/xlink">
    <!-- Generator: Sketch 41.2 (35397) - http://www.bohemiancoding.com/sketch -->
    <title>Group</title>
    <desc>Created with Sketch.</desc>
    <defs></defs>
    <g id="Page-1" stroke="none" stroke-width="1" fill="none" fill-rule="evenodd">
        <g id="Group">
            <path d="M11,0 C4.92525,0 0,4.92525 0,11 C0,17.07475 4.92525,22 11,22 C17.07475,22 22,17.07475 22,11 C22,4.92525 17.07475,0 11,0 Z" id="Shape" fill="#FFFFFF"></path>
            <path d="M11,3 C6.582,3 3,6.582 3,11 C3,15.418 6.582,19 11,19 C15.418,19 19,15.418 19,11 C19,6.582 15.418,3 11,3 Z" id="Shape" fill="#8FD920"></path>
            <polygon id="Path" fill="#FFFFFF" points="9.95833333 15.41 6.20833333 11.7733333 7.75583333 10.225 9.95833333 12.3133333 14.6608333 7.49333333 16.2083333 9.04083333"></polygon>
        </g>
    </g>
</svg>