<?xml version="1.0" encoding="UTF-8" standalone="no"?>
<svg width="86px" height="25px" viewBox="0 0 86 25" version="1.1" xmlns="http://www.w3.org/2000/svg" xmlns:xlink="http://www.w3.org/1999/xlink">
    <!-- Generator: Sketch 40.3 (33839) - http://www.bohemiancoding.com/sketch -->
    <title>EKKO</title>
    <desc>Created with Sketch.</desc>
    <defs></defs>
    <g id="Page-1" stroke="none" stroke-width="1" fill="none" fill-rule="evenodd">
        <g id="Homepage" transform="translate(-230.000000, -35.000000)" fill="#DA4177">
            <g id="Header-and-intro" transform="translate(180.000000, 27.000000)">
                <g id="Header">
                    <g id="Logo">
                        <g id="Logo-text" transform="translate(49.000000, 1.000000)">
                            <path d="M8.296,24.88 L8.296,21.99 L15.436,21.99 C15.742,21.99 15.98,21.752 16.014,21.548 L16.49,16.788 C16.524,16.584 16.354,16.346 16.048,16.346 L8.296,16.346 L8.296,13.66 L16.66,13.66 C16.966,13.66 17.204,13.456 17.204,13.15 L17.204,8.016 C17.204,7.778 16.966,7.54 16.66,7.54 L1.7,7.54 C1.394,7.54 1.224,7.71 1.224,8.016 L1.224,30.49 C1.292,30.728 1.53,31 1.768,31 L16.898,31 C17.17,31 17.408,30.762 17.408,30.524 L17.408,25.322 C17.408,25.084 17.17,24.88 16.898,24.88 L8.296,24.88 Z M32.47,18.726 L39.202,7.948 C39.338,7.71 39.236,7.54 38.964,7.54 L31.518,7.54 C31.212,7.54 30.872,7.71 30.736,7.948 L26.656,15.666 L26.656,8.05 C26.656,7.778 26.452,7.54 26.146,7.54 L20.128,7.54 C19.89,7.54 19.652,7.778 19.652,8.05 L19.652,30.524 C19.652,30.762 19.89,31 20.128,31 L26.146,31 C26.452,31 26.656,30.762 26.656,30.524 L26.656,22.092 L30.872,30.592 C31.008,30.83 31.348,31 31.586,31 L39.474,31 C39.746,31 39.882,30.83 39.712,30.592 L32.47,18.726 Z M53.822,18.726 L60.554,7.948 C60.69,7.71 60.588,7.54 60.316,7.54 L52.87,7.54 C52.564,7.54 52.224,7.71 52.088,7.948 L48.008,15.666 L48.008,8.05 C48.008,7.778 47.804,7.54 47.498,7.54 L41.48,7.54 C41.242,7.54 41.004,7.778 41.004,8.05 L41.004,30.524 C41.004,30.762 41.242,31 41.48,31 L47.498,31 C47.804,31 48.008,30.762 48.008,30.524 L48.008,22.092 L52.224,30.592 C52.36,30.83 52.7,31 52.938,31 L60.826,31 C61.098,31 61.234,30.83 61.064,30.592 L53.822,18.726 Z M74.052,6.996 C66.708,6.996 61.812,11.892 61.812,19.236 C61.812,26.58 66.708,31.476 74.052,31.476 C81.396,31.476 86.292,26.58 86.292,19.236 C86.292,11.892 81.396,6.996 74.052,6.996 L74.052,6.996 Z M74.052,13.66 C77.146,13.66 79.22,15.904 79.22,19.27 C79.22,22.636 77.146,24.88 74.052,24.88 C70.958,24.88 68.884,22.636 68.884,19.27 C68.884,15.904 70.958,13.66 74.052,13.66 L74.052,13.66 Z" id="EKKO"></path>
                        </g>
                    </g>
                </g>
            </g>
        </g>
    </g>
</svg>