<?xml version="1.0" encoding="UTF-8" standalone="no"?>
<svg width="20px" height="23px" viewBox="0 0 20 23" version="1.1" xmlns="http://www.w3.org/2000/svg" xmlns:xlink="http://www.w3.org/1999/xlink">
    <!-- Generator: Sketch 41.2 (35397) - http://www.bohemiancoding.com/sketch -->
    <title>noun_75385</title>
    <desc>Created with Sketch.</desc>
    <defs></defs>
    <g id="Page-1" stroke="none" stroke-width="1" fill="none" fill-rule="evenodd">
        <g id="noun_75385" fill="#DA4177">
            <path d="M10,4.5 C14.41125,4.5 18,8.08875 18,12.5 C18,16.91125 14.41125,20.5 10,20.5 C5.58875,20.5 2,16.91125 2,12.5 C2,8.08875 5.58875,4.5 10,4.5 L10,4.5 Z M10,2.5 C4.47725,2.5 0,6.97725 0,12.5 C0,18.02275 4.47725,22.5 10,22.5 C15.52275,22.5 20,18.02275 20,12.5 C20,6.97725 15.52275,2.5 10,2.5 L10,2.5 Z" id="Shape"></path>
            <path d="M10.00075,13.00025 C9.733,13.00025 9.47375,12.85625 9.33875,12.60375 C9.1435,12.23825 9.28125,11.784 9.6465,11.58875 L15.49225,8.46375 C15.85775,8.26825 16.312,8.4065 16.507,8.7715 C16.70225,9.137 16.5645,9.59125 16.19925,9.7865 L10.3535,12.9115 C10.241,12.97175 10.11975,13.00025 10.00075,13.00025 Z" id="Shape"></path>
            <path d="M10,8.125 C9.793,8.125 9.625,7.95725 9.625,7.75 L9.625,5.75 C9.625,5.54275 9.793,5.375 10,5.375 C10.207,5.375 10.375,5.54275 10.375,5.75 L10.375,7.75 C10.375,7.95725 10.207,8.125 10,8.125 Z" id="Shape"></path>
            <path d="M7.62525,8.7615 C7.49575,8.7615 7.36975,8.69425 7.30025,8.574 L6.30025,6.842 C6.19675,6.66275 6.258,6.43325 6.4375,6.32975 C6.61675,6.226 6.84625,6.28725 6.94975,6.467 L7.94975,8.199 C8.05325,8.37825 7.992,8.60775 7.8125,8.71125 C7.7535,8.74525 7.689,8.7615 7.62525,8.7615 Z" id="Shape"></path>
            <path d="M5.88625,10.5 C5.8225,10.5 5.758,10.48375 5.699,10.4495 L3.96675,9.4495 C3.78725,9.346 3.726,9.1165 3.8295,8.93725 C3.93275,8.758 4.16275,8.6965 4.34175,8.8 L6.074,9.8 C6.2535,9.9035 6.31475,10.133 6.21125,10.31225 C6.14175,10.43275 6.0155,10.5 5.88625,10.5 Z" id="Shape"></path>
            <path d="M5.25,12.875 L3.25,12.875 C3.043,12.875 2.875,12.70725 2.875,12.5 C2.875,12.29275 3.043,12.125 3.25,12.125 L5.25,12.125 C5.457,12.125 5.625,12.29275 5.625,12.5 C5.625,12.70725 5.457,12.875 5.25,12.875 Z" id="Shape"></path>
            <path d="M4.1545,16.25 C4.025,16.25 3.89875,16.18275 3.8295,16.0625 C3.726,15.883 3.78725,15.65375 3.96675,15.55025 L5.699,14.55025 C5.878,14.4465 6.10775,14.50775 6.21125,14.6875 C6.31475,14.867 6.2535,15.09625 6.074,15.19975 L4.34175,16.19975 C4.28275,16.234 4.21825,16.25 4.1545,16.25 Z" id="Shape"></path>
            <path d="M6.62475,18.72075 C6.561,18.72075 6.4965,18.70475 6.4375,18.6705 C6.258,18.567 6.19675,18.33775 6.30025,18.15825 L7.30025,16.426 C7.40375,16.24625 7.63325,16.18525 7.8125,16.28875 C7.992,16.39225 8.05325,16.6215 7.94975,16.801 L6.94975,18.53325 C6.88025,18.6535 6.75425,18.72075 6.62475,18.72075 Z" id="Shape"></path>
            <path d="M10,19.625 C9.793,19.625 9.625,19.457 9.625,19.25 L9.625,17.25 C9.625,17.043 9.793,16.875 10,16.875 C10.207,16.875 10.375,17.043 10.375,17.25 L10.375,19.25 C10.375,19.457 10.207,19.625 10,19.625 Z" id="Shape"></path>
            <path d="M13.37525,18.72075 C13.24575,18.72075 13.11975,18.65375 13.05025,18.53325 L12.05025,16.801 C11.94675,16.6215 12.008,16.39225 12.1875,16.28875 C12.3665,16.18525 12.59625,16.24625 12.69975,16.426 L13.69975,18.15825 C13.80325,18.33775 13.742,18.567 13.5625,18.6705 C13.5035,18.7045 13.439,18.72075 13.37525,18.72075 Z" id="Shape"></path>
            <path d="M15.8455,16.25 C15.78175,16.25 15.71725,16.234 15.65825,16.19975 L13.926,15.19975 C13.7465,15.09625 13.68525,14.867 13.78875,14.6875 C13.89225,14.50775 14.12175,14.4465 14.301,14.55025 L16.03325,15.55025 C16.21275,15.65375 16.274,15.883 16.1705,16.0625 C16.101,16.18275 15.97475,16.25 15.8455,16.25 Z" id="Shape"></path>
            <path d="M16.75,12.875 L14.75,12.875 C14.543,12.875 14.375,12.70725 14.375,12.5 C14.375,12.29275 14.543,12.125 14.75,12.125 L16.75,12.125 C16.957,12.125 17.125,12.29275 17.125,12.5 C17.125,12.70725 16.957,12.875 16.75,12.875 Z" id="Shape"></path>
            <path d="M14.11375,10.5 C13.98425,10.5 13.85825,10.43275 13.78875,10.3125 C13.68525,10.13325 13.7465,9.90375 13.926,9.80025 L15.65825,8.80025 C15.8375,8.69675 16.067,8.75775 16.1705,8.9375 C16.274,9.11675 16.21275,9.34625 16.03325,9.44975 L14.301,10.44975 C14.242,10.484 14.1775,10.5 14.11375,10.5 Z" id="Shape"></path>
            <path d="M12.37475,8.7615 C12.311,8.7615 12.2465,8.74525 12.1875,8.711 C12.008,8.6075 11.94675,8.378 12.05025,8.19875 L13.05025,6.46675 C13.1535,6.28725 13.3835,6.22575 13.5625,6.3295 C13.742,6.433 13.80325,6.6625 13.69975,6.84175 L12.69975,8.57375 C12.63025,8.694 12.50425,8.7615 12.37475,8.7615 Z" id="Shape"></path>
            <path d="M12.25,0 L7.75,0 C7.47375,0 7.25,0.22375 7.25,0.5 L7.25,1.25 C7.25,1.52625 7.47375,1.75 7.75,1.75 L7.75,1.75 C8.02625,1.75 8.25,1.97375 8.25,2.25 L8.25,2.75 C8.25,3.02625 8.47375,3.25 8.75,3.25 L11.25,3.25 C11.52625,3.25 11.75,3.02625 11.75,2.75 L11.75,2.25 C11.75,1.97375 11.97375,1.75 12.25,1.75 L12.25,1.75 C12.52625,1.75 12.75,1.52625 12.75,1.25 L12.75,0.5 C12.75,0.22375 12.52625,0 12.25,0 Z" id="Shape"></path>
            <path d="M4.02975,6.40475 L3.0675,7.52625 C2.89275,7.73 2.586,7.7535 2.38225,7.57875 L0.82975,6.247 C0.626,6.07225 0.6025,5.7655 0.77725,5.56175 L1.7395,4.44025 C1.91425,4.2365 2.221,4.213 2.42475,4.38775 L3.97725,5.7195 C4.181,5.89425 4.2045,6.20125 4.02975,6.40475 Z" id="Shape"></path>
        </g>
    </g>
</svg>