<?xml version="1.0" encoding="UTF-8" standalone="no"?>
<svg width="26px" height="100px" viewBox="0 0 26 100" version="1.1" xmlns="http://www.w3.org/2000/svg" xmlns:xlink="http://www.w3.org/1999/xlink">
    <!-- Generator: Sketch 40.3 (33839) - http://www.bohemiancoding.com/sketch -->
    <title>Arrow icon</title>
    <desc>Created with Sketch.</desc>
    <defs></defs>
    <g id="Page-1" stroke="none" stroke-width="1" fill="none" fill-rule="evenodd">
        <g id="Homepage" transform="translate(-718.000000, -3183.000000)" fill="#FFFFFF">
            <g id="Pricing" transform="translate(0.000000, 2975.000000)">
                <path d="M720.612044,307.219508 L743.82229,258.589388 C743.833265,258.565609 743.829607,258.543659 743.840582,258.51988 C743.878994,258.428422 743.891798,258.335135 743.91009,258.241847 C743.924723,258.161364 743.946673,258.08271 743.946673,258.002227 C743.946673,257.916256 743.924723,257.833944 743.908261,257.746144 C743.889969,257.654686 743.873507,257.563228 743.840582,257.479086 C743.831436,257.455307 743.833265,257.431528 743.82229,257.407749 L720.612044,208.781287 C720.282795,208.097181 719.466988,207.808173 718.782882,208.133764 C718.289008,208.369726 718,208.859941 718,209.373936 C718,209.569657 718.042071,209.772694 718.135358,209.962927 L741.067571,258.000398 L718.135358,306.037869 C718.045729,306.228102 718.003658,306.431139 718.003658,306.62686 C718.003658,307.137196 718.289008,307.63107 718.784711,307.867032 C719.466988,308.190794 720.282795,307.903615 720.612044,307.219508 L720.612044,307.219508 Z" id="Arrow-icon"></path>
            </g>
        </g>
    </g>
</svg>