<?xml version="1.0" encoding="UTF-8" standalone="no"?>
<svg width="20px" height="19px" viewBox="0 0 20 19" version="1.1" xmlns="http://www.w3.org/2000/svg" xmlns:xlink="http://www.w3.org/1999/xlink">
    <!-- Generator: Sketch 41.2 (35397) - http://www.bohemiancoding.com/sketch -->
    <title>Group</title>
    <desc>Created with Sketch.</desc>
    <defs></defs>
    <g id="Page-1" stroke="none" stroke-width="1" fill="none" fill-rule="evenodd">
        <g id="Group" fill="#F7A336">
            <path d="M19.1395062,18.131358 L1.10740741,18.131358 C0.779506173,18.131358 0.533580247,17.9671605 0.369876543,17.7214815 C0.205679012,17.4758025 0.205679012,17.1476543 0.369876543,16.9019753 L9.38592593,0.509382716 C9.71382716,0.0175308642 10.5330864,0.0175308642 10.8617284,0.509382716 L19.8775309,16.9019753 C20.0409877,17.1476543 20.0409877,17.4758025 19.8775309,17.7214815 C19.7130864,17.9671605 19.4676543,18.131358 19.1395062,18.131358 Z M2.50098765,16.4916049 L17.7459259,16.4916049 L10.1234568,2.64 L2.50098765,16.4916049 Z" id="Shape"></path>
            <path d="M10.1234568,12.3938272 C9.63160494,12.3938272 9.3037037,12.065679 9.3037037,11.5740741 L9.3037037,7.47580247 C9.3037037,6.98395062 9.63160494,6.6562963 10.1234568,6.6562963 C10.6150617,6.6562963 10.9432099,6.98395062 10.9432099,7.47580247 L10.9432099,11.5738272 C10.942963,12.065679 10.6148148,12.3938272 10.1234568,12.3938272 Z" id="Shape"></path>
            <g transform="translate(8.888889, 12.592593)">
                <ellipse id="Oval" cx="1.2345679" cy="1.44024691" rx="0.819506173" ry="0.819506173"></ellipse>
                <path d="M1.2345679,2.66987654 C0.579012346,2.66987654 0.00518518519,2.09604938 0.00518518519,1.44049383 C0.00518518519,0.785185185 0.579259259,0.211111111 1.2345679,0.211111111 C1.88987654,0.211111111 2.46395062,0.784938272 2.46395062,1.44049383 C2.46395062,2.09580247 1.88987654,2.66987654 1.2345679,2.66987654 Z M1.2345679,1.03061728 C0.988888889,1.03061728 0.824691358,1.19481481 0.824691358,1.44024691 C0.824691358,1.68592593 0.988888889,1.84987654 1.2345679,1.84987654 C1.48074074,1.84987654 1.64469136,1.68592593 1.64469136,1.44024691 C1.64444444,1.19481481 1.48049383,1.03061728 1.2345679,1.03061728 Z" id="Shape"></path>
            </g>
        </g>
    </g>
</svg>