<?xml version="1.0" encoding="UTF-8" standalone="no"?>
<svg width="36px" height="36px" viewBox="0 0 36 36" version="1.1" xmlns="http://www.w3.org/2000/svg" xmlns:xlink="http://www.w3.org/1999/xlink">
    <!-- Generator: Sketch 40.3 (33839) - http://www.bohemiancoding.com/sketch -->
    <title>Shape</title>
    <desc>Created with Sketch.</desc>
    <defs></defs>
    <g id="Page-1" stroke="none" stroke-width="1" fill="none" fill-rule="evenodd">
        <g id="Group" transform="translate(0.000000, 0.637820)" fill="#FFFFFF">
            <path d="M2.2550598,0.319119167 C1.68027887,0.380740502 1.19259251,0.768342545 1.0028122,1.31437711 C0.813031897,1.86041167 0.9552018,2.46692717 1.36786633,2.87174601 L16.2478131,17.7672575 L1.36786633,32.6472043 C0.95124547,33.0164469 0.774410665,33.5866657 0.909002619,34.1268491 C1.04359457,34.6670325 1.46729871,35.0876212 2.00846067,35.2182229 C2.54962264,35.3488247 3.11852087,35.1677865 3.48467883,34.748452 L18.3646256,19.8685053 L33.2445723,34.748452 C33.6107303,35.1677865 34.1796285,35.3488247 34.7207905,35.2182229 C35.2619524,35.0876212 35.6856566,34.6670325 35.8202485,34.1268491 C35.9548405,33.5866657 35.7780057,33.0164469 35.3613848,32.6472043 L20.4814381,17.7672575 L35.3613848,2.87174601 C35.8210732,2.42350882 35.9430649,1.73173503 35.664427,1.15329672 C35.385789,0.5748584 34.7688055,0.239054391 34.1317658,0.319119167 C33.7931407,0.363768298 33.4800293,0.523070614 33.2445723,0.770498305 L18.3646256,15.650445 L3.48467883,0.770498305 C3.16609333,0.438853041 2.71255208,0.272363213 2.2550598,0.319119167 L2.2550598,0.319119167 Z" id="Shape"></path>
        </g>
    </g>
</svg>