<?xml version="1.0" encoding="UTF-8" standalone="no"?>
<svg width="40px" height="40px" viewBox="0 0 40 40" version="1.1" xmlns="http://www.w3.org/2000/svg" xmlns:xlink="http://www.w3.org/1999/xlink">
    <!-- Generator: Sketch 42 (36781) - http://www.bohemiancoding.com/sketch -->
    <title>Shape</title>
    <desc>Created with Sketch.</desc>
    <defs></defs>
    <g id="Page-1" stroke="none" stroke-width="1" fill="none" fill-rule="evenodd">
        <path d="M24.715,10.5033333 C23.485,10.4466667 23.115,10.4366667 20,10.4366667 C16.885,10.4366667 16.5166667,10.4483333 15.2866667,10.5033333 C12.1216667,10.6483333 10.6483333,12.1466667 10.5033333,15.2866667 C10.4483333,16.5166667 10.435,16.885 10.435,20 C10.435,23.115 10.4483333,23.4833333 10.5033333,24.715 C10.6483333,27.8466667 12.115,29.3533333 15.2866667,29.4983333 C16.515,29.5533333 16.885,29.5666667 20,29.5666667 C23.1166667,29.5666667 23.485,29.555 24.715,29.4983333 C27.88,29.355 29.3516667,27.8516667 29.4983333,24.715 C29.5533333,23.485 29.565,23.115 29.565,20 C29.565,16.885 29.5533333,16.5166667 29.4983333,15.2866667 C29.3516667,12.1483333 27.8766667,10.6483333 24.715,10.5033333 L24.715,10.5033333 Z M20,25.9916667 C16.6916667,25.9916667 14.0083333,23.31 14.0083333,20 C14.0083333,16.6916667 16.6916667,14.01 20,14.01 C23.3083333,14.01 25.9916667,16.6916667 25.9916667,20 C25.9916667,23.3083333 23.3083333,25.9916667 20,25.9916667 Z M26.2283333,15.1733333 C25.455,15.1733333 24.8283333,14.5466667 24.8283333,13.7733333 C24.8283333,13 25.455,12.3733333 26.2283333,12.3733333 C27.0016667,12.3733333 27.6283333,13 27.6283333,13.7733333 C27.6283333,14.545 27.0016667,15.1733333 26.2283333,15.1733333 L26.2283333,15.1733333 Z M23.8883333,20 C23.8883333,22.1483333 22.1466667,23.8883333 20,23.8883333 C17.8533333,23.8883333 16.1116667,22.1483333 16.1116667,20 C16.1116667,17.8516667 17.8533333,16.1116667 20,16.1116667 C22.1466667,16.1116667 23.8883333,17.8516667 23.8883333,20 Z M20,0 C8.955,0 0,8.955 0,20 C0,31.045 8.955,40 20,40 C31.045,40 40,31.045 40,20 C40,8.955 31.045,0 20,0 Z M31.5966667,24.81 C31.405,29.0516667 29.0433333,31.4016667 24.8116667,31.5966667 C23.5666667,31.6533333 23.1683333,31.6666667 20,31.6666667 C16.8316667,31.6666667 16.435,31.6533333 15.19,31.5966667 C10.95,31.4016667 8.59833333,29.0483333 8.40333333,24.81 C8.34666667,23.5666667 8.33333333,23.1683333 8.33333333,20 C8.33333333,16.8316667 8.34666667,16.435 8.40333333,15.19 C8.59833333,10.95 10.9516667,8.59833333 15.19,8.405 C16.435,8.34666667 16.8316667,8.33333333 20,8.33333333 C23.1683333,8.33333333 23.5666667,8.34666667 24.8116667,8.405 C29.0533333,8.6 31.4066667,10.9583333 31.5966667,15.19 C31.6533333,16.435 31.6666667,16.8316667 31.6666667,20 C31.6666667,23.1683333 31.6533333,23.5666667 31.5966667,24.81 Z" id="Shape" fill="#FFFFFF" fill-rule="nonzero"></path>
    </g>
</svg>